<svg width="363" height="50" viewBox="0 0 363 50" fill="none" xmlns="http://www.w3.org/2000/svg">
<g clip-path="url(#clip0)">
<path d="M141.167 32.5V30.8333C141.167 29.9493 140.816 29.1014 140.191 28.4763C139.565 27.8512 138.718 27.5 137.833 27.5H131.167C130.283 27.5 129.435 27.8512 128.81 28.4763C128.185 29.1014 127.833 29.9493 127.833 30.8333V32.5" stroke="url(#paint0_linear)" stroke-width="2" stroke-linecap="round" stroke-linejoin="round"/>
<path d="M134.5 24.1667C136.341 24.1667 137.833 22.6743 137.833 20.8333C137.833 18.9924 136.341 17.5 134.5 17.5C132.659 17.5 131.167 18.9924 131.167 20.8333C131.167 22.6743 132.659 24.1667 134.5 24.1667Z" stroke="url(#paint1_linear)" stroke-width="2" stroke-linecap="round" stroke-linejoin="round"/>
<path d="M146.167 32.5V30.8333C146.166 30.0948 145.92 29.3773 145.468 28.7936C145.015 28.2099 144.382 27.793 143.667 27.6083" stroke="url(#paint2_linear)" stroke-width="2" stroke-linecap="round" stroke-linejoin="round"/>
<path d="M140.333 17.6083C141.051 17.7919 141.686 18.2089 142.14 18.7936C142.594 19.3783 142.84 20.0974 142.84 20.8375C142.84 21.5776 142.594 22.2967 142.14 22.8814C141.686 23.4661 141.051 23.8831 140.333 24.0667" stroke="url(#paint3_linear)" stroke-width="2" stroke-linecap="round" stroke-linejoin="round"/>
</g>
<path d="M157.592 25.416C157.592 24.328 157.843 23.352 158.344 22.488C158.856 21.624 159.544 20.952 160.408 20.472C161.283 19.9813 162.237 19.736 163.272 19.736C164.456 19.736 165.507 20.0293 166.424 20.616C167.352 21.192 168.024 22.0133 168.44 23.08H166.248C165.96 22.4933 165.56 22.056 165.048 21.768C164.536 21.48 163.944 21.336 163.272 21.336C162.536 21.336 161.88 21.5013 161.304 21.832C160.728 22.1627 160.275 22.6373 159.944 23.256C159.624 23.8747 159.464 24.5947 159.464 25.416C159.464 26.2373 159.624 26.9573 159.944 27.576C160.275 28.1947 160.728 28.6747 161.304 29.016C161.88 29.3467 162.536 29.512 163.272 29.512C163.944 29.512 164.536 29.368 165.048 29.08C165.56 28.792 165.96 28.3547 166.248 27.768H168.44C168.024 28.8347 167.352 29.656 166.424 30.232C165.507 30.808 164.456 31.096 163.272 31.096C162.227 31.096 161.272 30.856 160.408 30.376C159.544 29.8853 158.856 29.208 158.344 28.344C157.843 27.48 157.592 26.504 157.592 25.416ZM172.399 23.464C172.666 23.016 173.018 22.6693 173.455 22.424C173.903 22.168 174.431 22.04 175.039 22.04V23.928H174.575C173.86 23.928 173.316 24.1093 172.943 24.472C172.58 24.8347 172.399 25.464 172.399 26.36V31H170.575V22.184H172.399V23.464ZM177.644 21.016C177.313 21.016 177.036 20.904 176.812 20.68C176.588 20.456 176.476 20.1787 176.476 19.848C176.476 19.5173 176.588 19.24 176.812 19.016C177.036 18.792 177.313 18.68 177.644 18.68C177.964 18.68 178.236 18.792 178.46 19.016C178.684 19.24 178.796 19.5173 178.796 19.848C178.796 20.1787 178.684 20.456 178.46 20.68C178.236 20.904 177.964 21.016 177.644 21.016ZM178.54 22.184V31H176.716V22.184H178.54ZM180.326 26.552C180.326 25.6667 180.508 24.8827 180.87 24.2C181.244 23.5173 181.745 22.9893 182.374 22.616C183.014 22.232 183.718 22.04 184.486 22.04C185.18 22.04 185.782 22.1787 186.294 22.456C186.817 22.7227 187.233 23.0587 187.542 23.464V22.184H189.382V31H187.542V29.688C187.233 30.104 186.812 30.4507 186.278 30.728C185.745 31.0053 185.137 31.144 184.454 31.144C183.697 31.144 183.004 30.952 182.374 30.568C181.745 30.1733 181.244 29.6293 180.87 28.936C180.508 28.232 180.326 27.4373 180.326 26.552ZM187.542 26.584C187.542 25.976 187.414 25.448 187.158 25C186.913 24.552 186.588 24.2107 186.182 23.976C185.777 23.7413 185.34 23.624 184.87 23.624C184.401 23.624 183.964 23.7413 183.558 23.976C183.153 24.2 182.822 24.536 182.566 24.984C182.321 25.4213 182.198 25.944 182.198 26.552C182.198 27.16 182.321 27.6933 182.566 28.152C182.822 28.6107 183.153 28.9627 183.558 29.208C183.974 29.4427 184.412 29.56 184.87 29.56C185.34 29.56 185.777 29.4427 186.182 29.208C186.588 28.9733 186.913 28.632 187.158 28.184C187.414 27.7253 187.542 27.192 187.542 26.584ZM193.602 23.464C193.869 23.016 194.221 22.6693 194.658 22.424C195.106 22.168 195.634 22.04 196.242 22.04V23.928H195.778C195.064 23.928 194.52 24.1093 194.146 24.472C193.784 24.8347 193.602 25.464 193.602 26.36V31H191.778V22.184H193.602V23.464ZM205.275 31.144C204.582 31.144 203.958 31.0213 203.403 30.776C202.859 30.52 202.427 30.1787 202.107 29.752C201.787 29.3147 201.616 28.8293 201.595 28.296H203.483C203.515 28.6693 203.691 28.984 204.011 29.24C204.342 29.4853 204.752 29.608 205.243 29.608C205.755 29.608 206.15 29.512 206.427 29.32C206.715 29.1173 206.859 28.8613 206.859 28.552C206.859 28.2213 206.699 27.976 206.379 27.816C206.07 27.656 205.574 27.48 204.891 27.288C204.23 27.1067 203.691 26.9307 203.275 26.76C202.859 26.5893 202.496 26.328 202.187 25.976C201.888 25.624 201.739 25.16 201.739 24.584C201.739 24.1147 201.878 23.688 202.155 23.304C202.432 22.9093 202.827 22.6 203.339 22.376C203.862 22.152 204.459 22.04 205.131 22.04C206.134 22.04 206.939 22.296 207.547 22.808C208.166 23.3093 208.496 23.9973 208.539 24.872H206.715C206.683 24.4773 206.523 24.1627 206.235 23.928C205.947 23.6933 205.558 23.576 205.067 23.576C204.587 23.576 204.219 23.6667 203.963 23.848C203.707 24.0293 203.579 24.2693 203.579 24.568C203.579 24.8027 203.664 25 203.835 25.16C204.006 25.32 204.214 25.448 204.459 25.544C204.704 25.6293 205.067 25.7413 205.547 25.88C206.187 26.0507 206.71 26.2267 207.115 26.408C207.531 26.5787 207.888 26.8347 208.187 27.176C208.486 27.5173 208.64 27.9707 208.651 28.536C208.651 29.0373 208.512 29.4853 208.235 29.88C207.958 30.2747 207.563 30.584 207.051 30.808C206.55 31.032 205.958 31.144 205.275 31.144ZM210.014 26.552C210.014 25.6667 210.195 24.8827 210.558 24.2C210.931 23.5173 211.433 22.9893 212.062 22.616C212.702 22.232 213.406 22.04 214.174 22.04C214.867 22.04 215.47 22.1787 215.982 22.456C216.505 22.7227 216.921 23.0587 217.23 23.464V22.184H219.07V31H217.23V29.688C216.921 30.104 216.499 30.4507 215.966 30.728C215.433 31.0053 214.825 31.144 214.142 31.144C213.385 31.144 212.691 30.952 212.062 30.568C211.433 30.1733 210.931 29.6293 210.558 28.936C210.195 28.232 210.014 27.4373 210.014 26.552ZM217.23 26.584C217.23 25.976 217.102 25.448 216.846 25C216.601 24.552 216.275 24.2107 215.87 23.976C215.465 23.7413 215.027 23.624 214.558 23.624C214.089 23.624 213.651 23.7413 213.246 23.976C212.841 24.2 212.51 24.536 212.254 24.984C212.009 25.4213 211.886 25.944 211.886 26.552C211.886 27.16 212.009 27.6933 212.254 28.152C212.51 28.6107 212.841 28.9627 213.246 29.208C213.662 29.4427 214.099 29.56 214.558 29.56C215.027 29.56 215.465 29.4427 215.87 29.208C216.275 28.9733 216.601 28.632 216.846 28.184C217.102 27.7253 217.23 27.192 217.23 26.584ZM223.29 19.16V31H221.466V19.16H223.29ZM225.076 26.552C225.076 25.6667 225.258 24.8827 225.62 24.2C225.994 23.5173 226.495 22.9893 227.124 22.616C227.764 22.232 228.468 22.04 229.236 22.04C229.93 22.04 230.532 22.1787 231.044 22.456C231.567 22.7227 231.983 23.0587 232.292 23.464V22.184H234.132V31H232.292V29.688C231.983 30.104 231.562 30.4507 231.028 30.728C230.495 31.0053 229.887 31.144 229.204 31.144C228.447 31.144 227.754 30.952 227.124 30.568C226.495 30.1733 225.994 29.6293 225.62 28.936C225.258 28.232 225.076 27.4373 225.076 26.552ZM232.292 26.584C232.292 25.976 232.164 25.448 231.908 25C231.663 24.552 231.338 24.2107 230.932 23.976C230.527 23.7413 230.09 23.624 229.62 23.624C229.151 23.624 228.714 23.7413 228.308 23.976C227.903 24.2 227.572 24.536 227.316 24.984C227.071 25.4213 226.948 25.944 226.948 26.552C226.948 27.16 227.071 27.6933 227.316 28.152C227.572 28.6107 227.903 28.9627 228.308 29.208C228.724 29.4427 229.162 29.56 229.62 29.56C230.09 29.56 230.527 29.4427 230.932 29.208C231.338 28.9733 231.663 28.632 231.908 28.184C232.164 27.7253 232.292 27.192 232.292 26.584Z" fill="#3485FF"/>
<path d="M8.00012 2H355V-2H8.00012V2ZM361 8V42H365V8H361ZM355 48H8.00013V52H355V48ZM2.00012 42V8H-1.99988V42H2.00012ZM8.00013 48C4.68642 48 2.00012 45.3137 2.00012 42H-1.99988C-1.99988 47.5228 2.47728 52 8.00013 52V48ZM361 42C361 45.3137 358.314 48 355 48V52C360.523 52 365 47.5228 365 42H361ZM355 2C358.314 2 361 4.68629 361 8H365C365 2.47715 360.523 -2 355 -2V2ZM8.00012 -2C2.47727 -2 -1.99988 2.47715 -1.99988 8H2.00012C2.00012 4.68629 4.68641 2 8.00012 2V-2Z" fill="#3485FF"/>
<defs>
<linearGradient id="paint0_linear" x1="143.792" y1="19.9362" x2="142.289" y2="33.9475" gradientUnits="userSpaceOnUse">
<stop stop-color="#5498FF"/>
<stop offset="0.515625" stop-color="#428EFF"/>
<stop offset="1" stop-color="#297FFF"/>
</linearGradient>
<linearGradient id="paint1_linear" x1="139.146" y1="7.41488" x2="134.15" y2="24.8824" gradientUnits="userSpaceOnUse">
<stop stop-color="#5498FF"/>
<stop offset="0.515625" stop-color="#428EFF"/>
<stop offset="1" stop-color="#297FFF"/>
</linearGradient>
<linearGradient id="paint2_linear" x1="146.659" y1="20.2084" x2="140.75" y2="30.7666" gradientUnits="userSpaceOnUse">
<stop stop-color="#5498FF"/>
<stop offset="0.515625" stop-color="#428EFF"/>
<stop offset="1" stop-color="#297FFF"/>
</linearGradient>
<linearGradient id="paint3_linear" x1="143.334" y1="7.83837" x2="134.591" y2="19.7011" gradientUnits="userSpaceOnUse">
<stop stop-color="#5498FF"/>
<stop offset="0.515625" stop-color="#428EFF"/>
<stop offset="1" stop-color="#297FFF"/>
</linearGradient>
<clipPath id="clip0">
<rect width="20" height="20" fill="white" transform="translate(127 15)"/>
</clipPath>
</defs>
</svg>
